<svg xmlns="http://www.w3.org/2000/svg" width="30" height="30" viewBox="0 0 30 30">
  
<g transform="matrix(1.25,0,0,1.25,0,0)"><g>
    <path d="M8,18.65a6.81,6.81,0,0,0-.7-.76c-.51-.49-1.19-1.08-1.59-1.46A5.76,5.76,0,0,1,4.52,14.5a10.12,10.12,0,0,1-.68-2.31,9.1,9.1,0,0,1,.52-4.85,9.28,9.28,0,0,1,3-3.93.35.35,0,0,0,.07-.49.34.34,0,0,0-.48-.07,10,10,0,0,0-4.19,9.49A10.55,10.55,0,0,0,3.44,15a6.82,6.82,0,0,0,1.49,2.34c.4.37,1.08.95,1.6,1.44a5.41,5.41,0,0,1,.54.54h0a12.68,12.68,0,0,1,.15,1.66c0,.57,0,1.15.06,1.52a23.91,23.91,0,0,0-3.72.72c-.91.26-.69.92.19.72a23.28,23.28,0,0,1,4.06-.53.5.5,0,0,0,.44-.48s.07-2,0-3.18A2.66,2.66,0,0,0,8,18.65Z" style="fill: #FF4A8C;fill-rule: evenodd"></path>
    <path d="M21.28,13.1A10.51,10.51,0,0,0,21,11.9c-1-3.18-1-1.93-.76-3.34A5.79,5.79,0,0,0,20.08,6a5.31,5.31,0,0,0-2.27-2.85c-.49-.32-.95-.6-1.41-.84a10.82,10.82,0,0,0-1.52-.64.32.32,0,0,0-.4.19.31.31,0,0,0,.18.39,8.39,8.39,0,0,1,1.37.7c.42.27.83.57,1.27.91A4.45,4.45,0,0,1,19,6.29a5.57,5.57,0,0,1,0,2.42,2.29,2.29,0,0,0,0,.93c.3.92.7,1.71,1.05,2.6a10.32,10.32,0,0,1,.36,1.07c.08.32.13.5,0,.6s-.81.14-1.26.21a1.3,1.3,0,0,0-1.11.73.35.35,0,0,0,.64.29c.18-.36.64-.28,1.05-.28a2.12,2.12,0,0,0,1.24-.29C21.24,14.33,21.43,13.91,21.28,13.1Z" style="fill: #FF4A8C;fill-rule: evenodd"></path>
    <path d="M18.68,22.75a15.25,15.25,0,0,0-1.55-.38,17.09,17.09,0,0,0-1.89-.22l-.06-.72-.09-1.07L15,19.42l.63-.07a.3.3,0,0,0,.28-.33.31.31,0,0,0-.34-.28h-1a.36.36,0,0,0-.26.11.35.35,0,0,0-.1.26s-.08,2.33-.11,3.24v.32h0c0,.3-.16.37,2.79.83.77.12,1.53.25,2.23.43C20.32,24.24,20.24,23.21,18.68,22.75Z" style="fill: #FF4A8C;fill-rule: evenodd"></path>
    <path d="M10.67,11.37c0,.19.2.2.34.21s.43-.34.45-.37a1.92,1.92,0,0,0,.25-.44,2.78,2.78,0,0,0,.17-.51A2.15,2.15,0,0,0,11.65,9a1.63,1.63,0,0,0-1.08-.75,2.11,2.11,0,0,0-.4-.11.51.51,0,0,0-.18,0,.35.35,0,0,0-.26.42c.09.35.49.17.87.85a1.37,1.37,0,0,1,.11.36,2.54,2.54,0,0,1,.08.43,2.09,2.09,0,0,1,0,.34C10.8,11.26,10.54,11.08,10.67,11.37Z" style="fill: #000;fill-rule: evenodd"></path>
    <path d="M18.2,15.85a1.91,1.91,0,0,0-1.49.44,2.83,2.83,0,0,0-.37.43.24.24,0,0,0-.15,0,4.82,4.82,0,0,1-1.73-.87c-.24-.15-.47-.33-.71-.5s-.45-.35-.67-.53A5.15,5.15,0,0,1,12,13.62,3.6,3.6,0,0,0,12.6,13a4.66,4.66,0,0,0,1.14-3.27.35.35,0,0,0-.35-.34.36.36,0,0,0-.35.36A3.86,3.86,0,0,1,12,12.45a2.82,2.82,0,0,1-2.54.81,3.1,3.1,0,0,1-1.76-1,2.82,2.82,0,0,1-.81-1.76A4.46,4.46,0,0,1,7.3,8.3a2.4,2.4,0,0,1,1-1c.83-.43,2.06-.44,3.88.31a.73.73,0,0,1,.34.29,3.7,3.7,0,0,1,.39.8.31.31,0,0,0,.58-.21,4.48,4.48,0,0,0-.41-1,1.45,1.45,0,0,0-.61-.57c-.24-.13-.48-.23-.71-.33.09-.66.17-1.68.33-2.51a2.83,2.83,0,0,1,.32-.95,3.1,3.1,0,0,1,.72-.59A1.56,1.56,0,0,0,13.56,2c.37-.82-.34-2-2.21-2a2.24,2.24,0,0,0-.71.08,2.84,2.84,0,0,0-1.78,1.6,10,10,0,0,0-.61,3.08L8.16,6.23l-.33.12C6,7.17,5.62,9.44,5.67,10.61a4,4,0,0,0,1.16,2.5A4.15,4.15,0,0,0,9.27,14.3,3.77,3.77,0,0,0,11.33,14a4.7,4.7,0,0,0,1,1.62,6.68,6.68,0,0,0,.75.66,5.8,5.8,0,0,0,.85.51,5.13,5.13,0,0,0,2.16.6,1.75,1.75,0,0,0,1,1.87,2,2,0,0,0,2.88-.73,1.61,1.61,0,0,0,.08-.9A2.18,2.18,0,0,0,18.2,15.85ZM9,4.88a9.8,9.8,0,0,1,.8-2.72,1.81,1.81,0,0,1,1.14-1,1.2,1.2,0,0,1,.47,0c.87.05,1.09.4,1.08.42-.25.3-.73.57-1,1A3.93,3.93,0,0,0,11.16,4c-.09.79-.1,1.73-.13,2.4a5.27,5.27,0,0,0-2.19-.26Zm10.1,13.2c-.34.56-1,.43-1.5.15A.73.73,0,0,1,17.43,17a.94.94,0,0,1,.71-.35.93.93,0,0,1,1,.94A.77.77,0,0,1,19.12,18.08Z" style="fill: #000;fill-rule: evenodd"></path>
  </g></g></svg>