<svg xmlns="http://www.w3.org/2000/svg" width="30" height="30" viewBox="0 0 30 30">
  
<g transform="matrix(1.25,0,0,1.25,0,0)"><g>
    <path d="M22.91,1C21.54-.24,7.22.57,2.24.71a.34.34,0,0,0,0,.68c1.93,0,18-.57,19.91.28-.1.27.25-1.37.55,8,.07,2.33.26,9.8.08,12.13-2.21,1.17-18.89.9-21.63-.23a92.46,92.46,0,0,1-.41-9.7C.69,1.65,1.5,1.7.89,1.61a.3.3,0,0,0-.34.25C-.27,6.92,0,21.05.32,22c.09.23.54.56,1.36.75,3.28.8,21,1.86,22.15-.37C24.28,21.5,23.79,1.84,22.91,1Z" style="fill: #2D2D2D;fill-rule: evenodd"></path>
    <path d="M2.65,19.28c.62,1.54,14.68,1.57,17.51.93a1.8,1.8,0,0,0,1.17-.64c.43-.77-.06-12.73-.42-15.09a1.8,1.8,0,0,0-.31-.88C19.34,2.51,3,2.93,2.87,4,1.88,4.86,2.39,18.65,2.65,19.28ZM3.29,4.46c.92-.79,15.24-.76,16.58-.17a134,134,0,0,1,.43,14.78C19,19.55,7.65,19.74,4,19c-.24-.05-.43-.19-.53-.18C3,16.53,3.21,4.86,3.29,4.46Z" style="fill: #FF4A8C;fill-rule: evenodd"></path>
    <path d="M12.33,11.29a12,12,0,0,0,4.51,0,.34.34,0,0,0,0-.68c-2.46-.33-2.24-.41-4.55.06A.3.3,0,0,0,12.33,11.29Z" style="fill: #2D2D2D;fill-rule: evenodd"></path>
    <path d="M6.75,13.87c.48-.2,3.1-1.78,3.39-2.77a.69.69,0,0,0-.05-.45A12.09,12.09,0,0,0,7.38,8.23a.29.29,0,1,0-.4.43c.35.39,1.48,1.67,1.95,2.3a22.67,22.67,0,0,1-2.49,2.3C6.08,13.4,6.1,14.15,6.75,13.87Z" style="fill: #2D2D2D;fill-rule: evenodd"></path>
  </g></g></svg>