<svg xmlns="http://www.w3.org/2000/svg" width="30" height="30" viewBox="0 0 30 30">
  
<g transform="matrix(1.25,0,0,1.25,0,0)"><g>
    <g>
      <path d="M15.71,5.61a4.13,4.13,0,0,1-.66-.05c.06-.22.15-.48.24-.76.43-1.42.64-2.91-.5-3.87a.27.27,0,0,0-.37.39C15.6,2.6,14.15,4.37,14,5.71s3.07.9,4.18.39l1.69-.71a.35.35,0,0,0-.17-.66C17.58,5.5,17.49,5.65,15.71,5.61Z" style="fill: #2D2D2D;fill-rule: evenodd"></path>
      <path d="M15.88.06C14.5,0,15.13,0,6,0A.31.31,0,0,0,6,.65c8.51.07,8.76,0,9.82.16s3.75,2.65,4.43,3.7a1.11,1.11,0,0,1,.25.61c-.1,1.54-.74,6-1,7.08s-.45,1.8-.63,2.71c-.07.36-.52,4.6-1.65,5.15-1.59.77-3.37.26-5,.4a45.54,45.54,0,0,1-4.58.21c-5.4-.19-5.15-.11-6.61-.81,1.33-1.81,2.22-6,2.69-8.45.53-2.7.35-5.45.56-8.17,0-.47.47-3-.3-2.62-.31.14-.21.6-.21.81,0,1.35-.33,6.59-.41,7.46A36.67,36.67,0,0,1,.88,18.4c-.16.3-.35.59-.53.87a2,2,0,0,0-.34.57.76.76,0,0,0,.43.76,7.1,7.1,0,0,0,2,.76,57.84,57.84,0,0,0,9.84.13c1.69-.15,3.57.39,5.41-.51,1.68-.82,2.06-5.25,2.18-5.88.17-.91.41-1.8.59-2.7s.79-5.5.88-7.24C21.42,3.65,17.27.17,15.88.06Z" style="fill: #2D2D2D;fill-rule: evenodd"></path>
      <path d="M23.09,5.81c-.1,1.54-.94,7.71-1.16,8.75s-.45,1.8-.63,2.71c-.07.36-.52,4.6-1.65,5.15-1.59.76-3.37.26-5,.4-1,.09-3.24.25-4.58.21-5.15-.19-5.14,0-6.4-.57-.73-.29-.91.41-.46.72a4,4,0,0,0,1.69.54,57,57,0,0,0,9.83.12c1.69-.14,3.57.4,5.41-.5,1.68-.82,2.07-5.25,2.18-5.88.17-.91.41-1.8.59-2.7S23.92,7.68,24,6C24.05,5.06,23.2,4.92,23.09,5.81Z" style="fill: #FF4A8C;fill-rule: evenodd"></path>
    </g>
    <path d="M8.62,9A.22.22,0,0,0,9,8.84c-.41-1.4-4.12.3-3.35,3a2.1,2.1,0,0,0,2.37,1.6,1.9,1.9,0,0,0,1-.33,1.92,1.92,0,0,0,.35-.35.27.27,0,0,0-.24-.39c-.24,0-.21.31-.74.43A2.08,2.08,0,0,1,7,12.5a1.93,1.93,0,0,1-.42-2.17C7.1,9,8.46,8.59,8.62,9Z" style="fill: #2D2D2D;fill-rule: evenodd"></path>
    <path d="M10.65,11.21c0,.16,0-.18.07,1.33a.26.26,0,0,0,.51,0,7.69,7.69,0,0,0,.25-1.35c.39,0,.78-.06,1.19-.1a.25.25,0,1,0,0-.5c-.42-.07-.82-.15-1.21-.2-.05-.35-.13-.7-.16-1.05a.22.22,0,1,0-.44,0,9.48,9.48,0,0,0-.19,1,4.53,4.53,0,0,0-1.28.22.23.23,0,0,0,0,.45C10.06,11.08,9.89,11.16,10.65,11.21Z" style="fill: #2D2D2D;fill-rule: evenodd"></path>
    <path d="M14.83,11.21c0,.16,0-.18.07,1.33a.25.25,0,1,0,.5,0,7.33,7.33,0,0,0,.26-1.35c.39,0,.77-.06,1.19-.1a.25.25,0,1,0,0-.5c-.42-.07-.82-.15-1.22-.2,0-.35-.12-.7-.15-1.05a.22.22,0,1,0-.44,0,9.48,9.48,0,0,0-.19,1,4.53,4.53,0,0,0-1.28.22.23.23,0,0,0,0,.45C14.23,11.08,14.06,11.16,14.83,11.21Z" style="fill: #2D2D2D;fill-rule: evenodd"></path>
  </g></g></svg>