<svg xmlns="http://www.w3.org/2000/svg" width="30" height="30" viewBox="0 0 30 30">
  
<g transform="matrix(1.25,0,0,1.25,0,0)"><g>
    <path d="M10.22,9.44c-.19-.64-.85-.64-1.33.27a21.09,21.09,0,0,0-.65,3.14.22.22,0,0,0,.21,0A2.91,2.91,0,0,0,9,12a2.77,2.77,0,0,0,1.35-.05,3,3,0,0,1,.12.63c0,.26.45.31.56-.06a10.23,10.23,0,0,0-.29-1.59C10.68,10.83,10.79,11.21,10.22,9.44ZM9.14,11.56a9.76,9.76,0,0,1,.44-1.73c.13.33.42,1.1.62,1.71A2.21,2.21,0,0,0,9.14,11.56Z" style="fill: #2D2D2D;fill-rule: evenodd"></path>
    <path d="M16.09,9.44c-.19-.64-.84-.64-1.32.27a21.09,21.09,0,0,0-.65,3.14.22.22,0,0,0,.21,0,2.91,2.91,0,0,0,.51-.9,2.77,2.77,0,0,0,1.35-.05,5.55,5.55,0,0,1,.12.63c0,.26.45.31.56-.06a11.56,11.56,0,0,0-.29-1.59C16.56,10.83,16.67,11.21,16.09,9.44ZM15,11.56a10.67,10.67,0,0,1,.43-1.73c.15.38.44,1.13.62,1.71A2.17,2.17,0,0,0,15,11.56Z" style="fill: #2D2D2D;fill-rule: evenodd"></path>
    <path d="M13.48,12a24,24,0,0,0,.46-2.78c0-.11-.33-.24-.49.08-.06.13-.17,1.14-.2,1.22l-.51,1.23c-.35-.88-.41-1.09-.51-1.32a11.55,11.55,0,0,0-.6-1.15c-.18-.25-.44-.18-.46,0S12,12,12,12.08C12.35,13,13.15,13.27,13.48,12Z" style="fill: #2D2D2D;fill-rule: evenodd"></path>
    <path d="M5.25,9.6c.17.37,1.38,0,1.48,0a4.84,4.84,0,0,1,0,1.55c-.24,1.86-1.14.93-1.18.39a.24.24,0,1,0-.48,0,1.39,1.39,0,0,0,1,1.43c.81.15,1.25-1,1.26-1.77,0-.39-.1-1.62-.12-1.67.49,0,.66,0,.74-.18S8,9.1,7.73,9A6.31,6.31,0,0,0,7,8.94a2.74,2.74,0,0,0-.9.14,5.39,5.39,0,0,1-.64.19C5.2,9.38,5.21,9.53,5.25,9.6Z" style="fill: #2D2D2D;fill-rule: evenodd"></path>
    <g>
      <path d="M15.71,5.61a4.13,4.13,0,0,1-.66-.05c.06-.22.15-.48.24-.76.43-1.42.64-2.91-.5-3.87a.27.27,0,0,0-.37.39C15.6,2.6,14.15,4.37,14,5.71s3.07.9,4.18.39l1.69-.71a.35.35,0,0,0-.17-.66C17.58,5.5,17.49,5.65,15.71,5.61Z" style="fill: #2D2D2D;fill-rule: evenodd"></path>
      <path d="M15.88.06C14.5,0,15.13,0,6,0A.31.31,0,0,0,6,.65c8.51.07,8.76,0,9.82.16s3.75,2.65,4.43,3.7a1.11,1.11,0,0,1,.25.61c-.1,1.54-.74,6-1,7.08s-.45,1.8-.63,2.71c-.07.36-.52,4.6-1.65,5.15-1.59.77-3.37.26-5,.4a45.54,45.54,0,0,1-4.58.21c-5.4-.19-5.15-.11-6.61-.81,1.33-1.81,2.22-6,2.69-8.45.53-2.7.35-5.45.56-8.17,0-.47.47-3-.3-2.62-.31.14-.21.6-.21.81,0,1.35-.33,6.59-.41,7.46A36.67,36.67,0,0,1,.88,18.4c-.16.3-.35.59-.53.87a2,2,0,0,0-.34.57.76.76,0,0,0,.43.76,7.1,7.1,0,0,0,2,.76,57.84,57.84,0,0,0,9.84.13c1.69-.15,3.57.39,5.41-.51,1.68-.82,2.06-5.25,2.18-5.88.17-.91.41-1.8.59-2.7s.79-5.5.88-7.24C21.42,3.65,17.27.17,15.88.06Z" style="fill: #2D2D2D;fill-rule: evenodd"></path>
      <path d="M23.09,5.81c-.1,1.54-.94,7.71-1.16,8.75s-.45,1.8-.63,2.71c-.07.36-.52,4.6-1.65,5.15-1.59.76-3.37.26-5,.4-1,.09-3.24.25-4.58.21-5.15-.19-5.14,0-6.4-.57-.73-.29-.91.41-.46.72a4,4,0,0,0,1.69.54,57,57,0,0,0,9.83.12c1.69-.14,3.57.4,5.41-.5,1.68-.82,2.07-5.25,2.18-5.88.17-.91.41-1.8.59-2.7S23.92,7.68,24,6C24.05,5.06,23.2,4.92,23.09,5.81Z" style="fill: #FF4A8C;fill-rule: evenodd"></path>
    </g>
  </g></g></svg>