<svg xmlns="http://www.w3.org/2000/svg" width="30" height="30" viewBox="0 0 30 30">
  
<g transform="matrix(1.25,0,0,1.25,0,0)"><g>
    <path d="M11.77,4.26c.71-.6.7-1.21.38-1.62a1.63,1.63,0,0,0-1.94-.34l-.09,0a.37.37,0,0,0-.13.15,1.42,1.42,0,0,0,.25,1.82A1.24,1.24,0,0,0,11.77,4.26Zm-1.16-.9a.81.81,0,0,1-.11-.45,1,1,0,0,1,.65.11c.25.12.09.24-.05.34S10.7,3.52,10.61,3.36Z" style="fill: #2D2D2D"></path>
    <path d="M14.94,21.65c.54-.6.49-1.15.15-1.5-1.22-1.31-3,.17-1.8,1.57C13.64,22.13,14.24,22.25,14.94,21.65Zm-.72-1c.15.07,0,.16,0,.22s-.26.19-.36-.05a1.07,1.07,0,0,1-.07-.19A.59.59,0,0,1,14.22,20.62Z" style="fill: #FF4A8C"></path>
    <g>
      <path d="M22.63,9.05a3.13,3.13,0,0,0-1.77-1.86A5.25,5.25,0,0,0,20.23,7a4.74,4.74,0,0,0-.65-.16,5.9,5.9,0,0,0-.72-.09c-1.32.18-1.13.6,0,.71l.57.1L20,7.7c.18.07.36.14.54.23a2.29,2.29,0,0,1,1.24,1.43,9.76,9.76,0,0,1,.15,3.25,10.29,10.29,0,0,1-.26,2.28,4.15,4.15,0,0,1-1,1.87,3.74,3.74,0,0,1-2.09,1,22.67,22.67,0,0,1-3.94.25l-1.19,0c-.39,0-.78,0-1.17-.06a.29.29,0,0,0-.33.25.31.31,0,0,0,.26.33c.32,0,.65.08,1,.1.49,0,1,.06,1.45.08.66,0,1.41.07,2.18.09,0,0,0,.06,0,.1a8.64,8.64,0,0,1-.2,2A2.86,2.86,0,0,1,16,22a1.85,1.85,0,0,1-.66.45,4.74,4.74,0,0,1-1.34.3,8.51,8.51,0,0,1-2.89.06,3.92,3.92,0,0,1-1.67-.68,3.1,3.1,0,0,1-1-1.49,5.47,5.47,0,0,1-.27-1.13c-.35-1.58-.92-.87-.77.12a7.69,7.69,0,0,0,.24,1.27,4,4,0,0,0,1.22,2,4.64,4.64,0,0,0,2.09,1,9,9,0,0,0,3.27-.1,6.27,6.27,0,0,0,1.58-.48,2.64,2.64,0,0,0,.94-.76,3.61,3.61,0,0,0,.64-1.43,8.78,8.78,0,0,0,.09-2.18s0-.06,0-.09a10.12,10.12,0,0,0,1.36-.1,4.66,4.66,0,0,0,2.7-1.23,4.74,4.74,0,0,0,1.13-1.84A9.59,9.59,0,0,0,23,12.62,10.59,10.59,0,0,0,22.63,9.05Z" style="fill: #2D2D2D"></path>
      <path d="M8.05,18.33a12,12,0,0,1,.31-2.65A1.29,1.29,0,0,1,9,14.89a3.69,3.69,0,0,1,1-.36c1.64-.36,3.47,0,5-.7a4.34,4.34,0,0,0,2.34-2.93A27,27,0,0,0,17.68,4a6.35,6.35,0,0,0-.25-1.13A3.93,3.93,0,0,0,15.15.58,8.56,8.56,0,0,0,10.52.13a6.7,6.7,0,0,0-1.39.4,3.11,3.11,0,0,0-.86.56,2.85,2.85,0,0,0-.81,1.63,12,12,0,0,0,0,2.53.31.31,0,0,0,.31.28A.3.3,0,0,0,8,5.22a10.79,10.79,0,0,1,.06-2.39,2.22,2.22,0,0,1,.64-1.25,2.81,2.81,0,0,1,.88-.49,6.3,6.3,0,0,1,1-.25,7.79,7.79,0,0,1,4.17.5,3,3,0,0,1,1.75,1.84,4.44,4.44,0,0,1,.19.95,9.77,9.77,0,0,1,0,1.53,19.68,19.68,0,0,1-.48,4.93,3.22,3.22,0,0,1-1.74,2.23c-1.5.66-3.26.28-4.82.62a4.87,4.87,0,0,0-1.32.48,2.37,2.37,0,0,0-1.1,1.43,7.29,7.29,0,0,0-.23,1.91c-.11.29-.64.26-.72.27a7.57,7.57,0,0,1-1.66,0,4.06,4.06,0,0,1-1.52-.4,1.63,1.63,0,0,1-.66-.8,6.28,6.28,0,0,1-.37-1.2,12.2,12.2,0,0,1-.22-2.47,14,14,0,0,1,.29-2.47,5.71,5.71,0,0,1,.42-1.31,1.83,1.83,0,0,1,.49-.65A3.27,3.27,0,0,1,4,7.77a8,8,0,0,1,1.48-.48,15,15,0,0,1,2.43-.37c1.26-.1,2.53-.1,3.75-.1A.32.32,0,0,0,12,6.5a.33.33,0,0,0-.33-.33c-1.23,0-2.53-.06-3.81,0a17.59,17.59,0,0,0-2.55.34A10.47,10.47,0,0,0,3.64,7a4.16,4.16,0,0,0-1,.6,2.71,2.71,0,0,0-.72.9A6.43,6.43,0,0,0,1.37,10,14.08,14.08,0,0,0,1,12.68a11.52,11.52,0,0,0,.19,2.67,5.72,5.72,0,0,0,.55,1.72,2.43,2.43,0,0,0,.94,1,4.46,4.46,0,0,0,1.52.5,7.63,7.63,0,0,0,2,.06Z" style="fill: #FF4A8C"></path>
    </g>
  </g></g></svg>