<svg xmlns="http://www.w3.org/2000/svg" width="30" height="30" viewBox="0 0 30 30">
  
<g transform="matrix(1.25,0,0,1.25,0,0)"><g>
    <path d="M12,9.93a3.43,3.43,0,0,1-.66,1.23A3.78,3.78,0,0,1,8.24,12.4a3.09,3.09,0,0,1-2.81-1.56,2.3,2.3,0,0,1-.18-.5c-.07-.31-.11-.63-.16-.94a2.51,2.51,0,0,1,0-.27c-.22-.38-.76-.31-.83,0a3.13,3.13,0,0,0,0,.43c0,.32,0,.66.1,1a3.06,3.06,0,0,0,.21.73A3.72,3.72,0,0,0,6.08,12.9,8.28,8.28,0,0,0,3.6,14.11,9.37,9.37,0,0,0,1.52,16.2,7.46,7.46,0,0,0,.8,17.46c-.3.63-.54,1.3-.78,1.95a.29.29,0,0,0,.16.38.28.28,0,0,0,.37-.16,19.4,19.4,0,0,1,.92-1.82,7.81,7.81,0,0,1,.75-1.06,9.31,9.31,0,0,1,1.89-1.66C4,15.52,4,16,3.94,16.41a9.1,9.1,0,0,0,0,.91c0,.3,0,.61,0,.91,0,.72.11,1.42.19,2.13a.32.32,0,0,0,.33.32.32.32,0,0,0,.32-.33c0-.71.13-1.4.18-2.11,0-.3,0-.6,0-.9s0-.61,0-.91c0-.6-.09-1.19-.15-1.78A8.09,8.09,0,0,1,6,14.1c.16.15.32.31.47.48.53.57,1,1.18,1.56,1.76l.43.43.14.15-.05-.09a1.79,1.79,0,0,0,.22.2c-.05.23-.1.46-.14.7s0,.34,0,.52a4.52,4.52,0,0,0,0,.52c0,.42.09.82.14,1.24a.32.32,0,0,0,.32.33A.31.31,0,0,0,9.38,20c.08-.41.17-.81.23-1.22a4.52,4.52,0,0,0,.06-.53c0-.17,0-.35,0-.53s-.08-.53-.13-.79c.26-.23.51-.46.75-.71.61-.65,1.15-1.37,1.77-2l0,0,0,0a.17.17,0,0,0,0-.1s0-.05,0-.07a.37.37,0,0,0-.05-.17s0,0,0,0h0s0,0,0,0A6.66,6.66,0,0,0,10.58,13a4.26,4.26,0,0,0,1.54-1.21,4.49,4.49,0,0,0,.75-1.62A6.28,6.28,0,0,0,13,8.93a.5.5,0,0,0-.87.1A4.49,4.49,0,0,1,12,9.93Zm-.73,4.14L9.11,15.89l-.36-.35c-.52-.41-1-.86-1.53-1.29-.18-.15-.38-.28-.56-.42A6.4,6.4,0,0,1,11.25,14.07Z" style="fill: #000;fill-rule: evenodd"></path>
    <path d="M12.41,6.11c0,.52-.07,1-.11,1.55l0,.3c-.45.11-.9.22-1.35.31s-.61.11-.92.15a12,12,0,0,1-1.34.08c-.46,0-.91,0-1.37,0A9.3,9.3,0,0,1,5.8,8.43a2.69,2.69,0,0,1-.87-.28c0-.22,0-.44,0-.66,0-.46,0-.92,0-1.37a.34.34,0,0,0-.61-.19c0,.65-.07,1.41-.07,2.07,0,.31-.05.62.68.88a6.55,6.55,0,0,0,.74.27,10,10,0,0,0,1.6.36,9.18,9.18,0,0,0,1.48.08,8.46,8.46,0,0,0,1.49-.2c.33-.09.65-.19,1-.3l1.09-.41c.47-.31.74-.36.75-.73,0-.53.13-1.3.13-1.83,0-.12,0-.24,0-.36A.48.48,0,0,0,12.41,6.11Z" style="fill: #FF4A8C;fill-rule: evenodd"></path>
    <path d="M15.42,3.55c-.9-.44-1.8-.88-2.73-1.3-.61-.28-1.23-.54-1.88-.79C10.5,1.35,9.92,1.1,9.4,1a2.81,2.81,0,0,0-.77-.1A2.75,2.75,0,0,0,7.89,1c-.5.15-1,.4-1.37.52-1,.41-2.1.82-3.08,1.29a14.91,14.91,0,0,0-1.86,1C1.14,3.94,1.32,5,1.35,5.5a5.72,5.72,0,0,1,0,.59c0,.21,0,.4,0,.6,0,.47.12.92.18,1.39a.32.32,0,0,0,.32.33.33.33,0,0,0,.33-.32c.07-.47.15-.92.2-1.39,0-.2,0-.4,0-.59a4,4,0,0,0,0-.6c0-.28-.08-.55-.13-.82A45.29,45.29,0,0,0,7,6.64l1.87.61a.67.67,0,0,0,.37,0,3.92,3.92,0,0,0,.47-.22l1.12-.49L15.3,4.35A2.1,2.1,0,0,0,15.59,4,.33.33,0,0,0,15.42,3.55Zm-5,2.08L9.36,6a.83.83,0,0,0-.19.15c-.84-.27-1.69-.55-2.55-.81S4.84,4.89,4,4.61c-.53-.17-1-.36-1.56-.55.42-.2.86-.38,1.32-.55,1-.37,2.07-.69,3.13-1,.27-.09.72-.27,1.15-.41A2.3,2.3,0,0,1,8.67,2a2.45,2.45,0,0,1,.65.11c.44.12.9.29,1.16.37.65.19,1.27.4,1.88.62.77.28,1.5.58,2.25.88Z" style="fill: #000;fill-rule: evenodd"></path>
    <path d="M24,17.4l-.07-.85,0-.63a7.37,7.37,0,0,0-.05-1.66,1.32,1.32,0,0,0-.57-.86A2.92,2.92,0,0,0,22.17,13c-.49-.06-1,0-1.46-.06-.75,0-1.49,0-2.24,0s-1.5,0-2.26.1a6.53,6.53,0,0,0-1.63.23,1.37,1.37,0,0,0-.71.53,2.21,2.21,0,0,0-.16.35c-.24.69-.1,1.24,0,3.84a4.27,4.27,0,0,0,.08,1.28,1.43,1.43,0,0,0,.62.84,3,3,0,0,0,.91.36,10.14,10.14,0,0,0,1.31.2l.61,0c0,.06-.07.12-.1.19s-.08.29-.12.43a3.73,3.73,0,0,1-.15.68.35.35,0,0,0-.06.24l-1,.1a.3.3,0,0,0-.26.31.28.28,0,0,0,.31.26l2.12.22c.57,0,1.14,0,1.7,0,.84-.06,1.66-.21,2.49-.28a.33.33,0,0,0,0-.66l-1-.07a.31.31,0,0,0-.08-.15,3.9,3.9,0,0,1-.25-.36c-.07-.12-.1-.25-.17-.38s-.11-.23-.18-.34l-.13-.2,1.14-.08a7.72,7.72,0,0,0,1-.13,1.91,1.91,0,0,0,.8-.38,1.44,1.44,0,0,0,.44-.62A3.46,3.46,0,0,0,24,18.6Zm-4.3,4.65c-.55,0-1.1.05-1.64.05l-.39,0a2.15,2.15,0,0,0,.32-.41,1.5,1.5,0,0,0,.16-.34,1.36,1.36,0,0,0,.07-.35,2.83,2.83,0,0,0,0-.29h.16c.37,0,.73,0,1.1,0a2.25,2.25,0,0,0,0,.44,1.52,1.52,0,0,0,.16.4,1.77,1.77,0,0,0,.26.35l.17.15ZM22.83,19a.62.62,0,0,1-.14.25,1,1,0,0,1-.37.16,6.76,6.76,0,0,1-.89.11l-3.11.25h-1.6a10.32,10.32,0,0,1-1.21-.12,1.9,1.9,0,0,1-.67-.23.72.72,0,0,1-.34-.52,3.85,3.85,0,0,1-.06-.89c-.18-4-.22-3.23,0-3.84a.86.86,0,0,1,.55-.28,8.5,8.5,0,0,1,1.27-.09c.74,0,1.47,0,2.2,0s1.47.07,2.2.12A13.73,13.73,0,0,1,22,14a1.94,1.94,0,0,1,.69.23c.11.08.11.25.13.42a9.9,9.9,0,0,1,0,1.29l0,.67.06.87v1A2.36,2.36,0,0,1,22.83,19Z" style="fill: #000;fill-rule: evenodd"></path>
  </g></g></svg>