<svg xmlns="http://www.w3.org/2000/svg" width="30" height="30" viewBox="0 0 30 30">
  
<g transform="matrix(1.25,0,0,1.25,0,0)"><g>
    <path d="M22.91,2.47a2.61,2.61,0,0,0-1.83-1,15.64,15.64,0,0,0-2.73.12C15.55,1.7,12.78,1.17,10,1,9.27,1,8.56,1,7.84,1a31.09,31.09,0,0,0-3.3.23A5.47,5.47,0,0,0,2.28,2,5.11,5.11,0,0,0,.53,5.44C0,8.3.47,12.1.4,13.78A46.54,46.54,0,0,0,0,19.38a3.64,3.64,0,0,0,.82,2.53,4,4,0,0,0,1.93.8,21.67,21.67,0,0,0,2.87.2c1.2.08,2.41.09,3.6.08,2.79,0,5.57-.21,8.36-.19a.27.27,0,0,0,.29-.27.29.29,0,0,0-.28-.28c-2.79-.07-5.58.07-8.37.06-1.18,0-2.36,0-3.55-.14a24.7,24.7,0,0,1-2.78-.24,3.24,3.24,0,0,1-1.51-.64,2.78,2.78,0,0,1-.51-1.95,45.35,45.35,0,0,1,.48-5.51c.08-1.65-.31-5.4.19-8.2A4.13,4.13,0,0,1,2.88,2.87,4.65,4.65,0,0,1,4.7,2.3a31.31,31.31,0,0,1,3.18-.22c2.79-.13,5.57.38,8.37.49.71,0,1.42,0,2.15,0A15.77,15.77,0,0,1,21,2.41,1.76,1.76,0,0,1,22.18,3a4.51,4.51,0,0,1,.93,2.64,27.45,27.45,0,0,1-.44,4.58c-.09.8-.13,1.6-.16,2.4-.08,1.85,0,3.7-.12,5.55,0,.55,0,1.29,0,2a2.7,2.7,0,0,1-.25,1.14,1.33,1.33,0,0,1-.76.49,10.41,10.41,0,0,1-1.67.32.31.31,0,1,0,.09.62,8.09,8.09,0,0,0,2.08-.44,1.68,1.68,0,0,0,.85-.67A3.12,3.12,0,0,0,23,20.59c.1-.78,0-1.7.07-2.34.11-1.85.11-3.7.2-5.55,0-.78.1-1.56.2-2.34A29.15,29.15,0,0,0,24,5.63,5.34,5.34,0,0,0,22.91,2.47Z" style="fill: #FF4A8C;fill-rule: evenodd"></path>
    <path d="M10.28,5.72a.32.32,0,1,0,.23-.59,6.09,6.09,0,0,0-2.8-.57A8.59,8.59,0,0,0,6,4.78c-.82.18-1.59.48-2.34.68a.29.29,0,0,0-.23.32A.27.27,0,0,0,3.79,6c.89-.07,1.84-.15,2.79-.27-.07.42-.14.85-.18,1.28s0,.56,0,.84,0,.56,0,.84c0,.65.12,1.29.16,1.94a.32.32,0,0,0,.31.33.33.33,0,0,0,.32-.31c.08-.66.16-1.3.21-2q0-.42,0-.84c0-.27,0-.55,0-.83,0-.46-.08-.92-.13-1.38a10.61,10.61,0,0,1,1.12-.11A5.62,5.62,0,0,1,10.28,5.72Z" style="fill: #2D2D2D;fill-rule: evenodd"></path>
    <path d="M16,6.09,17.31,6a14.56,14.56,0,0,1,2-.08.32.32,0,0,0,.36-.27.33.33,0,0,0-.27-.36,10.35,10.35,0,0,0-2-.29,8.42,8.42,0,0,0-.87,0,8.08,8.08,0,0,0-.86.1c-.67.12-1.32.32-1.95.48a.28.28,0,0,0-.24.31.27.27,0,0,0,.31.24C14.47,6.1,15.22,6.12,16,6.09Z" style="fill: #2D2D2D;fill-rule: evenodd"></path>
    <path d="M12.39,10a.28.28,0,0,0,.32.23c.93-.07,1.8-.05,2.68-.08l1.33-.07c.44,0,.88-.07,1.33-.08s.88,0,1.33,0a.32.32,0,0,0,.35-.28.31.31,0,0,0-.28-.35A18.34,18.34,0,0,0,17.05,9c-.35,0-.69,0-1,0s-.69.05-1,.1a23.21,23.21,0,0,0-2.35.53A.29.29,0,0,0,12.39,10Z" style="fill: #2D2D2D;fill-rule: evenodd"></path>
    <path d="M4.42,14.89c1-.12,2-.19,3-.24,1.15-.06,2.32-.06,3.48-.08s2.33-.08,3.49-.1c.41,0,.81,0,1.23,0,.62,0,1.25,0,1.88.06.34,0,.72,0,1.09,0a2.67,2.67,0,0,1,.64.08.3.3,0,0,0,.39-.19.31.31,0,0,0-.19-.4,2.92,2.92,0,0,0-.6-.14c-.43-.06-.9,0-1.29-.09-.73-.07-1.46-.17-2.19-.23-.32,0-.64-.05-1-.06-.83,0-1.66,0-2.51,0s-1.68.06-2.51.13a41.4,41.4,0,0,0-5,.73.28.28,0,0,0-.23.32A.29.29,0,0,0,4.42,14.89Z" style="fill: #2D2D2D;fill-rule: evenodd"></path>
    <path d="M19,17.75a31,31,0,0,0-4.44-.47c-.73,0-1.48,0-2.23,0s-1.47.08-2.22.14c-1.13.12-2.27.21-3.4.38a18.26,18.26,0,0,0-2.27.46.29.29,0,0,0-.21.34.28.28,0,0,0,.34.2,16.57,16.57,0,0,1,2.22-.25c1.13-.07,2.25-.06,3.4-.1.89-.06,1.76-.09,2.62-.13s1.74-.09,2.62-.1a34.62,34.62,0,0,1,3.49.16.3.3,0,0,0,.35-.26A.32.32,0,0,0,19,17.75Z" style="fill: #2D2D2D;fill-rule: evenodd"></path>
  </g></g></svg>