<svg width="60" height="60" viewBox="0 0 60 60" fill="none" xmlns="http://www.w3.org/2000/svg">
<circle cx="30" cy="30" r="30" fill="#19686B" fill-opacity="0.08"/>
<path d="M46.1708 18.1598C46.1331 18.0234 46.06 17.8994 45.9588 17.8004C45.8576 17.7015 45.732 17.6312 45.5948 17.5966L43.8444 17.155L43.4028 15.4046C43.3683 15.2675 43.298 15.142 43.1992 15.0408C43.1005 14.9397 42.9766 14.8665 42.8404 14.8288C42.7041 14.7911 42.5603 14.7901 42.4236 14.8261C42.2868 14.862 42.162 14.9336 42.062 15.0334L38.6796 18.4094C38.5814 18.5072 38.5104 18.6288 38.4733 18.7623C38.4363 18.8958 38.4346 19.0366 38.4683 19.171L38.9163 20.9438L29.7003 30.1694C29.5501 30.3196 29.4657 30.5234 29.4657 30.7358C29.4657 30.9483 29.5501 31.152 29.7003 31.3022C29.8506 31.4524 30.0543 31.5368 30.2667 31.5368C30.4792 31.5368 30.6829 31.4524 30.8331 31.3022L40.0556 22.0766L41.8283 22.5246C41.9622 22.5592 42.1027 22.5585 42.2361 22.5226C42.3696 22.4867 42.4915 22.4168 42.59 22.3198L45.966 18.9374C46.0657 18.8374 46.1372 18.7128 46.1731 18.5762C46.2091 18.4396 46.2083 18.296 46.1708 18.1598ZM41.7804 20.8606L40.4715 20.5406L40.1516 19.2318L42.1996 17.1614L42.4139 18.0094C42.4493 18.1492 42.5218 18.2768 42.6238 18.3788C42.7258 18.4807 42.8534 18.5532 42.9932 18.5886L43.8412 18.803L41.7804 20.8606ZM26.7019 30.7326C26.7028 31.6778 27.0786 32.584 27.747 33.2524C28.4153 33.9207 29.3216 34.2966 30.2667 34.2974C31.2116 34.2966 32.1175 33.9206 32.7854 33.2522C33.4532 32.5837 33.8283 31.6775 33.8283 30.7326C33.8283 30.7134 33.8283 30.6846 33.8283 30.6558C33.8241 30.4436 33.9043 30.2385 34.0513 30.0854C34.1984 29.9324 34.4002 29.8441 34.6123 29.8398C34.8245 29.8356 35.0297 29.9158 35.1827 30.0628C35.3357 30.2098 35.4241 30.4116 35.4283 30.6238C35.4283 30.659 35.4283 30.6942 35.4283 30.7326C35.4283 32.1018 34.8846 33.4151 33.9167 34.3835C32.9488 35.352 31.636 35.8966 30.2667 35.8974C29.5779 35.9146 28.8926 35.7937 28.2511 35.5419C27.6097 35.2902 27.0251 34.9126 26.5319 34.4314C26.0386 33.9503 25.6466 33.3753 25.3789 32.7404C25.1113 32.1054 24.9734 31.4233 24.9734 30.7342C24.9734 30.0451 25.1113 29.363 25.3789 28.7281C25.6466 28.0931 26.0386 27.5181 26.5319 27.037C27.0251 26.5558 27.6097 26.1783 28.2511 25.9265C28.8926 25.6747 29.5779 25.5539 30.2667 25.571H30.3595C30.4646 25.5731 30.5682 25.5959 30.6645 25.638C30.7608 25.6801 30.8478 25.7408 30.9206 25.8166C30.9934 25.8924 31.0506 25.9817 31.0888 26.0796C31.1271 26.1775 31.1457 26.2819 31.1435 26.387C31.1432 26.4926 31.1216 26.597 31.0801 26.6941C31.0385 26.7911 30.9779 26.8788 30.9017 26.952C30.8256 27.0251 30.7355 27.0822 30.6369 27.1199C30.5383 27.1575 30.4331 27.1749 30.3275 27.171H30.2443C29.3033 27.1769 28.4029 27.5547 27.7392 28.2219C27.0756 28.8891 26.7028 29.7916 26.7019 30.7326ZM33.7419 23.2958C32.6589 22.786 31.4766 22.5215 30.2795 22.5214C28.6558 22.5195 27.0679 22.9993 25.7168 23.9C24.3658 24.8008 23.3122 26.082 22.6895 27.5817C22.0668 29.0813 21.9029 30.732 22.2185 32.3248C22.5341 33.9177 23.3151 35.3811 24.4626 36.5299C25.6101 37.6788 27.0727 38.4615 28.6651 38.779C30.2576 39.0965 31.9084 38.9345 33.4088 38.3135C34.9092 37.6926 36.1917 36.6405 37.094 35.2905C37.9963 33.9405 38.4779 32.3532 38.478 30.7294C38.478 29.5323 38.2136 28.35 37.7035 27.267C37.6136 27.0748 37.6037 26.8547 37.676 26.6552C37.7483 26.4556 37.8969 26.293 38.0891 26.203C38.2814 26.1131 38.5015 26.1031 38.701 26.1755C38.9005 26.2478 39.0632 26.3964 39.1532 26.5886C39.7626 27.8839 40.0784 29.2979 40.078 30.7294C40.078 32.6693 39.5027 34.5655 38.425 36.1784C37.3473 37.7914 35.8155 39.0485 34.0233 39.7908C32.2311 40.5332 30.2591 40.7274 28.3565 40.349C26.4539 39.9705 24.7063 39.0364 23.3346 37.6647C21.963 36.293 21.0289 34.5454 20.6504 32.6429C20.272 30.7403 20.4662 28.7682 21.2085 26.9761C21.9509 25.1839 23.208 23.6521 24.8209 22.5744C26.4338 21.4966 28.3301 20.9214 30.2699 20.9214C31.7015 20.9208 33.1155 21.2366 34.4107 21.8462C34.603 21.9362 34.7516 22.0988 34.8239 22.2984C34.8962 22.4979 34.8863 22.718 34.7963 22.9102C34.7064 23.1024 34.5437 23.2511 34.3442 23.3234C34.1447 23.3957 33.9246 23.3858 33.7323 23.2958H33.7419ZM35.7611 19.0942C34.0468 18.2829 32.173 17.8642 30.2763 17.8686C27.7308 17.8661 25.2417 18.6187 23.1239 20.0311C21.0061 21.4436 19.3549 23.4525 18.3792 25.8036C17.4034 28.1547 17.147 30.7425 17.6423 33.2394C18.1376 35.7363 19.3623 38.0302 21.1617 39.8309C22.961 41.6316 25.254 42.8581 27.7505 43.3552C30.2471 43.8524 32.835 43.5979 35.1869 42.6239C37.5387 41.6499 39.5489 40.0001 40.9629 37.8834C42.3769 35.7667 43.1314 33.2782 43.1308 30.7326C43.1353 28.8359 42.7166 26.9621 41.9052 25.2478C41.86 25.1528 41.8339 25.0499 41.8286 24.9449C41.8232 24.8398 41.8385 24.7348 41.8737 24.6357C41.9089 24.5366 41.9633 24.4454 42.0338 24.3673C42.1042 24.2892 42.1894 24.2258 42.2843 24.1806C42.4762 24.0894 42.6963 24.0781 42.8965 24.1492C42.9956 24.1844 43.0868 24.2388 43.1649 24.3092C43.2429 24.3797 43.3064 24.4648 43.3515 24.5598C44.2645 26.4881 44.7357 28.5959 44.7308 30.7294C44.7305 33.8622 43.7132 36.9103 41.8317 39.4152C39.9502 41.9201 37.3063 43.7464 34.2976 44.6195C31.2889 45.4925 28.0781 45.3651 25.148 44.2564C22.2179 43.1477 19.727 41.1177 18.0499 38.4716C16.3728 35.8255 15.6001 32.7064 15.8481 29.5834C16.0962 26.4604 17.3514 23.5024 19.4252 21.1542C21.4989 18.806 24.279 17.1945 27.3473 16.5622C30.4157 15.9298 33.6064 16.3108 36.4396 17.6478C36.5384 17.6901 36.6277 17.7518 36.7021 17.8294C36.7765 17.907 36.8346 17.9987 36.8728 18.0992C36.9109 18.1997 36.9285 18.3068 36.9243 18.4142C36.9202 18.5217 36.8944 18.6271 36.8486 18.7244C36.8028 18.8216 36.7378 18.9086 36.6576 18.9802C36.5774 19.0518 36.4836 19.1065 36.3818 19.141C36.28 19.1755 36.1723 19.1891 36.0651 19.1811C35.9579 19.1731 35.8535 19.1435 35.7579 19.0942H35.7611Z" fill="#19686B"/>
</svg>
