<svg width="60" height="60" viewBox="0 0 60 60" fill="none" xmlns="http://www.w3.org/2000/svg">
<circle cx="30" cy="30" r="30" fill="#19686B" fill-opacity="0.08"/>
<path d="M37.984 40.038V38.019L40.0147 35.9886V40.6389C40.0147 41.9501 38.9477 43.0182 37.6351 43.0182H21.0065C19.6938 43.0182 18.6254 41.95 18.6254 40.6389V19.3607C18.6254 18.0496 19.6937 16.9828 21.0065 16.9828H37.6347C38.9474 16.9828 40.0144 18.0496 40.0144 19.3607V24.9486L37.9843 22.9185V19.9619C37.9843 19.5087 37.6176 19.1419 37.1668 19.1419H21.4744C21.0242 19.1419 20.6533 19.508 20.6533 19.9619V40.038C20.6533 40.4932 21.0241 40.8594 21.4744 40.8594H37.1665C37.6178 40.8594 37.984 40.4925 37.984 40.038Z" fill="#19686B" stroke="#EDF3F3" stroke-width="0.2"/>
<path d="M37.8263 30.0091L34.11 26.2914C34.1099 26.2913 34.1098 26.2912 34.1097 26.2911C33.5647 25.7441 33.565 24.8603 34.11 24.3146C34.6553 23.7717 35.5407 23.7708 36.0856 24.3156C36.0856 24.3156 36.0856 24.3156 36.0857 24.3157L39.8011 28.0325L40.2609 28.4925L40.7206 28.0325L44.4372 24.3138C44.4372 24.3138 44.4372 24.3138 44.4372 24.3137C44.982 23.7688 45.8673 23.7687 46.4138 24.3128C46.9593 24.8587 46.9592 25.7422 46.4148 26.2875C46.4147 26.2876 46.4147 26.2877 46.4146 26.2877L42.695 30.0088L42.2355 30.4685L42.6952 30.928L46.4179 34.6494C46.4182 34.6496 46.4184 34.6498 46.4186 34.65C46.9621 35.1972 46.9615 36.0811 46.4163 36.6267C46.1428 36.8989 45.7868 37.035 45.4299 37.035C45.0712 37.035 44.7143 36.8985 44.4414 36.6257C44.4414 36.6256 44.4414 36.6256 44.4413 36.6256L40.7202 32.903L40.2606 32.4432L39.8009 32.9029L36.081 36.6227L36.0808 36.6229C35.8083 36.8957 35.4515 37.0322 35.0921 37.0322C34.7353 37.0322 34.3792 36.8963 34.1057 36.6248C33.5606 36.079 33.5608 35.1945 34.1053 34.6489C34.1053 34.6489 34.1053 34.6488 34.1054 34.6488L37.8262 30.9283L38.2858 30.4688L37.8263 30.0091Z" fill="#19686B" stroke="#EDF3F3" stroke-width="1.3"/>
</svg>
