<svg xmlns="http://www.w3.org/2000/svg" viewBox="0 0 30 30">
  
<g transform="matrix(1.25,0,0,1.25,0,0)"><g>
    <path d="M3,16.91a2.14,2.14,0,0,1-.81.69c-.24.12-.5.22-.7.07-.48-.33-.39-1-.2-1.59A12,12,0,0,1,2.84,13l.73-.95s.14,0,.22,0a6.56,6.56,0,0,1,1.37.71Zm6,2.22A3.19,3.19,0,0,1,8,20a.63.63,0,0,1-.73,0c-.61-.39-.45-1.11-.16-1.87a20.05,20.05,0,0,1,1.93-3.31c.43.22,1.26.74,1.72,1A16.72,16.72,0,0,1,8.91,19.13Zm4.37-3.76a3.26,3.26,0,0,1-.38,1.35,7.92,7.92,0,0,1-1.38,2c-.1.09-.3.06-.63,0l-.32-.11a21,21,0,0,0,1.19-2.8.44.44,0,0,0-.19-.54S10,14.4,9.37,14.12C9.21,14.05,9.08,14,9,14c-.21,0-.18-.35-2.16,2.61-.19-.17-.37-.32-.55-.46s-.25-.18-.39-.26a2.63,2.63,0,0,0-.41-.21c-.18-.08-.37-.14-.58-.21.5-1.12,1-2.3,1.09-2.46a.48.48,0,0,0,0-.48,1.89,1.89,0,0,0-.74-.6,6.3,6.3,0,0,0-1.65-.61.55.55,0,0,0-.49.16l-.92,1.09L1.9,13l-.38-.33c-.17-.16-.26-.25-.28-.33a2.32,2.32,0,0,1,.58-1.75c.41-.6.93-1.14,1.38-1.2a2.86,2.86,0,0,1,1.2.3,24.26,24.26,0,0,1,3.06,1.57,47.68,47.68,0,0,1,5,3.28C12.84,14.92,13.28,15.37,13.28,15.37ZM14.39,3.71l.31-.41A9.41,9.41,0,0,1,16.08,2a3.53,3.53,0,0,1,1-.53,5,5,0,0,1,3.32.26,3.77,3.77,0,0,1,2.15,2.34,7,7,0,0,1,.08,3.63A8.15,8.15,0,0,1,21.06,11c-1,1.28-2.29,2.3-3.38,3.51-.28.32-.56.65-.81,1a12.35,12.35,0,0,0-2,3.21,6.4,6.4,0,0,0-.43,2.58c.06,1.25,1,1.91,2.35,2.14,2,.35,4.95-.19,6.75-.28a.35.35,0,0,0,.33-.37.36.36,0,0,0-.36-.34c-1.75.05-4.65.52-6.56.13-.87-.18-1.53-.51-1.55-1.32a5.64,5.64,0,0,1,.66-2.67,12.53,12.53,0,0,1,1.68-2.4c.24-.31.49-.6.76-.89,1.12-1.21,2.4-2.26,3.45-3.54A9.35,9.35,0,0,0,23.81,8a8,8,0,0,0-.2-4.23A4.74,4.74,0,0,0,20.81.87,5.94,5.94,0,0,0,16.88.7a4.06,4.06,0,0,0-1.27.7,9.8,9.8,0,0,0-1.44,1.44l-.37.51C13,4.55,13.48,5,14.39,3.71ZM14,14.61a5.26,5.26,0,0,0-.66-.69,30.57,30.57,0,0,0-4.15-3A29.25,29.25,0,0,0,5.75,9.11C3.2,8,2.2,8.31,1.08,10.15a3.17,3.17,0,0,0-.56,2.49,1.42,1.42,0,0,0,.38.49,5.8,5.8,0,0,0,.57.48,8.37,8.37,0,0,0-1.4,2.8,2.08,2.08,0,0,0,.67,2.2,1.67,1.67,0,0,0,1.61.19A3.32,3.32,0,0,0,4,17.53c.1-.17.28-.51.48-.93l.14-.3a4.17,4.17,0,0,0,.37.36,3.51,3.51,0,0,0,.4.27l.43.2c.2.08.42.15.66.23A5.81,5.81,0,0,0,6,18.42a2.1,2.1,0,0,0,.69,2.51,2,2,0,0,0,2.67-.49,6.67,6.67,0,0,0,.94-1.26,3.7,3.7,0,0,0,.88.29,1.13,1.13,0,0,0,.86-.16,8.78,8.78,0,0,0,1.7-2.19,4.32,4.32,0,0,0,.55-1.59A2.62,2.62,0,0,0,14,14.61Z" style="fill: #000000"></path>
    <path d="M12.66,4.94a9.77,9.77,0,0,0-2-.67,6.3,6.3,0,0,0-3.94.46,9.31,9.31,0,0,0-3,2.42c-.28.87,0,.89.84.18A8.16,8.16,0,0,1,7.09,5.61a5.26,5.26,0,0,1,3.31-.2,7.82,7.82,0,0,1,3.26,1.53,4.43,4.43,0,0,1,1.71,2.94,5.18,5.18,0,0,1-.28,2.35,8.94,8.94,0,0,1-.53,1.25c-.47.8,0,1.18.68.47a11.28,11.28,0,0,0,.69-1.41,6,6,0,0,0,.46-2.75,5.31,5.31,0,0,0-2-3.75,6.88,6.88,0,0,0-1.19-.8Z" style="fill: #3397fa"></path>
  </g></g></svg>