<svg xmlns="http://www.w3.org/2000/svg" viewBox="0 0 30 30">
  
<g transform="matrix(1.25,0,0,1.25,0,0)"><g>
    <path d="M24,21.13c-.47-.95-.78-1.94-1.17-2.92-.18-.43-.37-.86-.59-1.28a10.59,10.59,0,0,0-1-1.63,4.14,4.14,0,0,0-1.06-.94,2.08,2.08,0,0,0-2.36,0,2.47,2.47,0,0,0-.94,2.09,8.46,8.46,0,0,0,.76,3c.6,1.35,1.44,2.62,2.09,3.84a.33.33,0,0,0,.59-.29c-.54-1.24-1.25-2.56-1.73-3.92A7.74,7.74,0,0,1,18,16.44a1.28,1.28,0,0,1,.45-1.07.91.91,0,0,1,1,.05,2.84,2.84,0,0,1,.78.64,9.15,9.15,0,0,1,1,1.4,10.59,10.59,0,0,1,.63,1.14c.46,1,.85,1.95,1.38,2.88a.37.37,0,0,0,.66-.35Z" style="fill: #000000;fill-rule: evenodd"></path>
    <path d="M16.92,18.68a4.32,4.32,0,0,1-3.3-1.77,3.14,3.14,0,0,1-.2-3.43,5.44,5.44,0,0,1,4.22-2.71A4,4,0,0,1,22,12.84a4.22,4.22,0,0,1,.41,1.31,5.12,5.12,0,0,1,0,1.4.37.37,0,0,0,.3.43.38.38,0,0,0,.43-.3,6,6,0,0,0,.12-1.61,5.08,5.08,0,0,0-.4-1.6,5,5,0,0,0-5.3-2.9,6.55,6.55,0,0,0-5.17,3.37,4.17,4.17,0,0,0,.54,4.53,5.09,5.09,0,0,0,4,1.86.33.33,0,0,0,0-.65Z" style="fill: #000000;fill-rule: evenodd"></path>
    <path d="M12.45,6.53A4.19,4.19,0,0,1,15.54,8.2a.37.37,0,0,0,.63-.4A5.07,5.07,0,0,0,12.6,5.49a5.44,5.44,0,0,0-4.24,1A4.36,4.36,0,0,0,6.8,10.62a4.46,4.46,0,0,0,2.77,3.24.32.32,0,1,0,.27-.59,3.71,3.71,0,0,1-2-2.81,3.29,3.29,0,0,1,1.33-3A4.28,4.28,0,0,1,12.45,6.53Z" style="fill: #3397fa;fill-rule: evenodd"></path>
    <path d="M15.27,13.48a.39.39,0,0,0-.51.13,1.71,1.71,0,0,0-.47,1.27,1,1,0,0,0,.07.35,1.28,1.28,0,0,0,.23.45,2.24,2.24,0,0,0,.91.62.32.32,0,0,0,.45-.05.33.33,0,0,0,0-.46,2.68,2.68,0,0,1-.3-.8,2.83,2.83,0,0,1-.11-.31c0-.11-.11-.19-.11-.31a.82.82,0,0,1,0-.38A.39.39,0,0,0,15.27,13.48Z" style="fill: #000000;fill-rule: evenodd"></path>
    <path d="M18.27,11.53a2,2,0,0,0-.59.07,3.71,3.71,0,0,0-1.16.61.32.32,0,0,0-.18.42.33.33,0,0,0,.43.18,6.58,6.58,0,0,1,1.08,0h.58c.13,0,.25,0,.38,0a3,3,0,0,1,.88.13.38.38,0,0,0,.5-.15.37.37,0,0,0-.15-.5,3.15,3.15,0,0,0-1.18-.63A2,2,0,0,0,18.27,11.53Z" style="fill: #000000;fill-rule: evenodd"></path>
    <path d="M9.54,16a11.6,11.6,0,0,1-3.67-1.34A12.13,12.13,0,0,1,2.8,12.27a8.25,8.25,0,0,1-1.09-1.42,4.12,4.12,0,0,1-.58-1.58,1.74,1.74,0,0,1,.44-1.11A8,8,0,0,1,4.38,6a18.73,18.73,0,0,1,7.75-1.83,14.5,14.5,0,0,1,4.8.49A9.32,9.32,0,0,1,21.08,7a3.89,3.89,0,0,1,.56.77,11.37,11.37,0,0,1,.66,1.36.32.32,0,0,0,.42.18.33.33,0,0,0,.18-.43,13.46,13.46,0,0,0-.64-1.46,4.83,4.83,0,0,0-.63-.92A9.84,9.84,0,0,0,17.94,4c0-.08.08-.16.12-.24s.22-.27.33-.43.2-.29.29-.44a7.33,7.33,0,0,1,.91-1.38A.38.38,0,0,0,19.64,1,.37.37,0,0,0,19.12,1,5.23,5.23,0,0,0,18,1.82a2.28,2.28,0,0,0-.39.48,2.22,2.22,0,0,0-.29.55,3.39,3.39,0,0,0-.18.86,15.71,15.71,0,0,0-5-.7c-.48,0-.9.06-1.35.1,0-.14,0-.27,0-.42a3,3,0,0,0-.06-.42c0-.13-.07-.27-.11-.41-.11-.33-.24-.64-.34-1a.37.37,0,0,0-.4-.33A.37.37,0,0,0,9.48,1,9.81,9.81,0,0,0,9.4,2,2.5,2.5,0,0,0,9.57,3c0,.08.09.14.13.22A18.08,18.08,0,0,0,4.34,4.66c-.07-.19-.14-.37-.22-.56a4.3,4.3,0,0,0-.24-.48c-.1-.16-.2-.32-.31-.47-.26-.36-.55-.69-.84-1A.37.37,0,0,0,2.22,2a.36.36,0,0,0-.12.5c.17.42.28.84.46,1.26A4.64,4.64,0,0,0,3,4.55a3.6,3.6,0,0,0,.5.53A8.37,8.37,0,0,0,.62,7.48a2.76,2.76,0,0,0-.6,2,5.24,5.24,0,0,0,.57,1.61A8.72,8.72,0,0,0,2.08,13a13,13,0,0,0,3.38,2.48,12.73,12.73,0,0,0,4,1.31A.37.37,0,1,0,9.54,16Z" style="fill: #000000;fill-rule: evenodd"></path>
  </g></g></svg>