<svg xmlns="http://www.w3.org/2000/svg" viewBox="0 0 30 30">
  
<g transform="matrix(1.25,0,0,1.25,0,0)"><g>
    <path d="M24,8.68a47.71,47.71,0,0,0-.25-4.77A3.59,3.59,0,0,0,23,2.15a2.59,2.59,0,0,0-1.73-.93,84,84,0,0,0-11-.47A39.32,39.32,0,0,0,3,1.4,4.49,4.49,0,0,0,1.05,2.52,2.69,2.69,0,0,0,.3,3.93,41,41,0,0,0,0,10.75,81.27,81.27,0,0,0,.75,20.88a2.28,2.28,0,0,0,1,1.43A5.07,5.07,0,0,0,4,23.09a29.56,29.56,0,0,0,4.25.16c3.17,0,7-.3,9.78-.37a.33.33,0,0,0,.33-.34A.34.34,0,0,0,18,22.2c-2.79,0-6.61.23-9.78.23a29.52,29.52,0,0,1-4.11-.21,4.35,4.35,0,0,1-1.55-.49,1.55,1.55,0,0,1-.87-1,74.58,74.58,0,0,1-.55-8.31,49.24,49.24,0,0,1,.3-8.27,1.8,1.8,0,0,1,.64-1,3.39,3.39,0,0,1,1.17-.63,41,41,0,0,1,7.12-.61,86.64,86.64,0,0,1,10.82.35,1.61,1.61,0,0,1,1.09.55A2.5,2.5,0,0,1,22.75,4c.16,1.15.27,2.81.33,4.66.14,4,.11,8.72.15,11a3.14,3.14,0,0,1-.4,1.58,1.43,1.43,0,0,1-1.17.82l-2,.06a.3.3,0,1,0,0,.6l2,0A1.91,1.91,0,0,0,23.16,22a3.68,3.68,0,0,0,.76-2.26C23.93,17.41,24.05,12.64,24,8.68Z" style="fill: #3397fa"></path>
    <path d="M5.29,12.17a.32.32,0,0,0-.34.3.31.31,0,0,0,.23.33,1.47,1.47,0,0,0,.4,0c.58,0,1.17.07,1.76.09s.93,0,1.39,0c.89,0,2-.09,3.16-.18S14,12.56,15,12.5a24.68,24.68,0,0,1,2.67-.05.35.35,0,0,0,.37-.31.33.33,0,0,0-.31-.37,30.5,30.5,0,0,0-4.58-.21c-.77,0-1.54.06-2.27.12s-1.59.17-2.25.24c-.44.06-.88.1-1.33.14Z" style="fill: #000000"></path>
  </g></g></svg>