<svg xmlns="http://www.w3.org/2000/svg" viewBox="0 0 30 30">
  
<g transform="matrix(1.25,0,0,1.25,0,0)"><g>
    <path d="M24,8.68a47.71,47.71,0,0,0-.25-4.77A3.59,3.59,0,0,0,23,2.15a2.59,2.59,0,0,0-1.73-.93,84,84,0,0,0-11-.47A39.32,39.32,0,0,0,3,1.4,4.51,4.51,0,0,0,1,2.52,2.75,2.75,0,0,0,.3,3.93,41,41,0,0,0,0,10.75,81.27,81.27,0,0,0,.75,20.88a2.28,2.28,0,0,0,1,1.43A5.07,5.07,0,0,0,4,23.09a29.56,29.56,0,0,0,4.25.16c3.17,0,7-.3,9.78-.37a.33.33,0,0,0,.33-.34A.34.34,0,0,0,18,22.2c-2.8,0-6.61.23-9.78.23a29.52,29.52,0,0,1-4.11-.21,4.35,4.35,0,0,1-1.55-.49,1.55,1.55,0,0,1-.87-1,74.58,74.58,0,0,1-.55-8.31,49.24,49.24,0,0,1,.3-8.27,1.8,1.8,0,0,1,.64-1,3.39,3.39,0,0,1,1.17-.63,41,41,0,0,1,7.12-.61,86.64,86.64,0,0,1,10.82.35,1.61,1.61,0,0,1,1.09.55A2.5,2.5,0,0,1,22.75,4c.16,1.15.27,2.81.33,4.66.14,4,.11,8.72.14,11a3,3,0,0,1-.39,1.58,1.43,1.43,0,0,1-1.17.82l-2,.06a.3.3,0,1,0,0,.6l2,0A1.91,1.91,0,0,0,23.16,22a3.68,3.68,0,0,0,.76-2.26C23.93,17.41,24.05,12.64,24,8.68Z" style="fill: #3397fa"></path>
    <path d="M19,11.92a29.45,29.45,0,0,0-4.58-.2c-.31,0-.61,0-.92,0,0-.12,0-.25,0-.37-.06-1-.2-1.89-.35-2.84a11.07,11.07,0,0,0-.57-2.2c-.18-.38-.43-.58-.64-.56s-.36.14-.31.3a4.58,4.58,0,0,1,.5,1.25,8.2,8.2,0,0,1,.12,1.32l.12,3.17h-.22c-.82.07-1.59.17-2.25.24-.43.06-.87.11-1.32.14l-2,.11a.34.34,0,0,0-.34.3.31.31,0,0,0,.23.33,1.55,1.55,0,0,0,.41,0l1.75.1c.47,0,.94,0,1.39,0,.71,0,1.54-.07,2.43-.13l.11,2.67c0,.19.16,2.07.22,2.66a1.64,1.64,0,0,0,0,.22c0,.88.15,1.32.33,1.3.21.31.41-.19.36-1.48a.17.17,0,0,0,0-.07h0c0-.59,0-2.43,0-2.62,0-.71.08-1.41.08-2.12,0-.21,0-.42,0-.63.91-.08,1.84-.17,2.73-.23a24.68,24.68,0,0,1,2.67-.05.33.33,0,0,0,.37-.31A.34.34,0,0,0,19,11.92Z" style="fill: #000000"></path>
  </g></g></svg>