<svg xmlns="http://www.w3.org/2000/svg" viewBox="0 0 30 30">
  
<g transform="matrix(1.25,0,0,1.25,0,0)"><g>
    <path d="M23.73,17.27c-.29-.19-.43,0-1.21,1.51C22.35,15.21,19.3,13,16.25,14c-3.94,1.34-4.72,4.68-3.08,7.28a5,5,0,0,0,3,2.39c.38.08,1.83.38,1.89-.13,0-.2-.09-.42-.51-.42a3.34,3.34,0,0,1-2.07-.5A4.92,4.92,0,0,1,14,20.79c-1.21-2.13-.45-4.7,2.64-5.78,2.44-.9,5.12.88,5.27,4.11,0,.08.29.2-2-1.05a.3.3,0,0,0-.36.47,26.23,26.23,0,0,0,2.06,1.75c.26.17.56.48,1,.39s.5-.43,1-2.21C23.84,17.87,24.29,17.44,23.73,17.27Z" style="fill: #000000;fill-rule: evenodd"></path>
    <g>
      <g>
        <path d="M10.36,18.73c-7-.17-7.09-.14-7.85-.29a2.13,2.13,0,0,1-1.18-.5,7.28,7.28,0,0,0,.76-1.4c2.39-6.43,1.78-9.93,2-13.24,0,.33.05-2.16,0-2.24a.3.3,0,0,0-.4-.15c-.32.13-.23.62-.24.77C3.05,9,2.76,10.32,1.74,13.87a20.56,20.56,0,0,1-.95,2.77C.46,17.27.05,17.77,0,18a.8.8,0,0,0,.46.82,6.27,6.27,0,0,0,1.86.65c.85.13,1,.09,8.06,0A.35.35,0,0,0,10.36,18.73Z" style="fill: #000000;fill-rule: evenodd"></path>
        <path d="M13.31,2.72c.23,1.32-1.84,3.49.26,3.66a7,7,0,0,0,2.84-.47l1.21-.54c.26-.12.31-.34.21-.5-.24-.39-1.12,0-1.74.24a8.69,8.69,0,0,1-2.35.18A5,5,0,0,0,14,1.89C13.6,1.6,13.16,1.85,13.31,2.72Z" style="fill: #000000;fill-rule: evenodd"></path>
        <path d="M14.37.23C13.26.15,14,.18,5.5.38a.35.35,0,0,0,0,.69s8.56.28,8.77.3c.94.09,4.1,3,4.09,3.58,0,1.47-.3,3.86-.45,5.3a.3.3,0,0,0,.6.08c.19-1.22.68-3.7.83-5.33S15.71.35,14.37.23Z" style="fill: #000000;fill-rule: evenodd"></path>
        <path d="M19.68,1.75A6.23,6.23,0,0,1,21.63,5c0,1.47-.9,5.43-1.05,6.86a.3.3,0,1,0,.6.08c.19-1.22,1.28-5.26,1.43-6.89a5.08,5.08,0,0,0-2.3-4C19.33.49,19.21,1.47,19.68,1.75Z" style="fill: #3397fa;fill-rule: evenodd"></path>
      </g>
      <path d="M8.89,8.89c0-.32-.21-.4-.51-.35a2.62,2.62,0,0,0-.71.38A5.12,5.12,0,0,0,5.6,10.69c-.33.64.42,1,.57,1.21a21.09,21.09,0,0,0,1.92,1.49.35.35,0,1,0,.49-.49c-.31-.38-.75-.79-1.15-1.22s-.22-.37-.65-.66C8,9.47,8.94,9.38,8.89,8.89Z" style="fill: #000000;fill-rule: evenodd"></path>
      <path d="M14.25,9.61a6.32,6.32,0,0,0-2.43-1,.36.36,0,0,0,0,.62,11,11,0,0,1,1.58,1c-.22.33-.95,1.21-1.34,1.66s-1,.69-.71,1.08.9-.09,1.34-.45C13.73,11.68,15.35,10.49,14.25,9.61Z" style="fill: #000000;fill-rule: evenodd"></path>
    </g>
  </g></g></svg>