<svg width="260" height="204" viewBox="0 0 260 204" fill="none" xmlns="http://www.w3.org/2000/svg">
<g clip-path="url(#clip0)">
<path d="M73.8896 42.0311C73.8905 43.5959 73.5572 45.1429 72.9122 46.5681C72.2671 47.9932 71.3253 49.2636 70.1498 50.294C68.9744 51.3243 67.5925 52.0907 66.0971 52.5418C64.6016 52.9929 63.0272 53.1182 61.4794 52.9092C61.4279 52.906 61.3768 52.8983 61.3266 52.8861C60.9301 52.8302 60.5373 52.7501 60.1505 52.6464C59.8939 52.5828 59.6431 52.5048 59.3952 52.4182C57.7143 51.8427 56.1983 50.8663 54.9778 49.5732C53.7573 48.28 52.869 46.7089 52.3894 44.9952C51.9097 43.2814 51.8532 41.4766 52.2246 39.7361C52.596 37.9956 53.3842 36.3717 54.5213 35.0044C55.6584 33.637 57.1103 32.5673 58.7519 31.8873C60.3934 31.2073 62.1753 30.9375 63.9441 31.1012C65.7128 31.2648 67.4154 31.857 68.9049 32.8266C70.3944 33.7962 71.6263 35.1142 72.4944 36.6671C72.8161 37.238 73.0844 37.8375 73.2958 38.458C73.527 39.1294 73.6912 39.8222 73.7858 40.5261C73.8404 40.9042 73.8732 41.2852 73.8839 41.6671C73.8867 41.7884 73.8896 41.9069 73.8896 42.0311Z" fill="#2F2E41"/>
<path d="M24.8609 93.0312L16.3111 96.5116C16.3111 96.5116 0.814633 91.9604 3.75363 96.5116C6.69262 101.063 17.1127 99.4564 17.1127 99.4564L30.2046 96.5116L24.8609 93.0312Z" fill="#A0616A"/>
<path d="M70.0156 137.74L70.8172 152.196C70.8172 152.196 70.8172 168.527 71.8859 174.417C72.9546 180.306 74.8249 190.48 74.8249 190.48L79.9013 189.944C79.9013 189.944 79.367 178.432 79.9013 175.488C80.4357 172.543 79.9013 154.07 79.9013 154.07L80.7029 137.204L70.0156 137.74Z" fill="#A0616A"/>
<path d="M91.9238 135.33L96.4659 150.858C96.4659 150.858 99.4049 168.527 103.413 176.559L105.817 184.323L112.497 183.252L109.825 172.275L105.817 150.323L102.878 130.779L91.9238 135.33Z" fill="#A0616A"/>
<path d="M80.1663 186.464C80.1663 186.464 76.1585 185.929 73.7539 187.803C73.7539 187.803 74.5554 202.26 75.6242 202.527C76.6929 202.795 83.9068 204.401 84.174 202.527C84.4412 200.653 82.0365 196.638 82.0365 196.638L80.1663 186.464Z" fill="#2F2E41"/>
<path d="M104.748 182.984C104.748 182.984 106.084 187 105.549 187.535C105.015 188.071 102.878 194.228 104.214 195.031C105.549 195.834 112.229 199.047 113.031 201.456C113.832 203.866 125.321 204.134 124.252 201.992C123.183 199.85 116.237 193.693 116.237 193.693L112.496 181.913L104.748 182.984Z" fill="#2F2E41"/>
<path d="M66.5424 54.2127C71.1167 54.2127 74.825 50.497 74.825 45.9135C74.825 41.3299 71.1167 37.6143 66.5424 37.6143C61.968 37.6143 58.2598 41.3299 58.2598 45.9135C58.2598 50.497 61.968 54.2127 66.5424 54.2127Z" fill="#A0616A"/>
<path d="M60.5292 49.7953L56.5215 61.3071L70.1477 63.4489C70.1477 63.4489 67.7431 52.4725 69.3462 49.7953C70.9493 47.1182 60.5292 49.7953 60.5292 49.7953Z" fill="#A0616A"/>
<path d="M105.817 127.031C105.328 136.096 90.9679 137.09 88.5323 137.193C88.4335 137.197 88.3362 137.168 88.2566 137.109C88.177 137.05 88.1199 136.966 88.0947 136.87L85.2953 126.251C85.2684 126.149 85.2053 126.06 85.1179 126.001C85.0305 125.942 84.9246 125.917 84.8202 125.931C84.7157 125.945 84.6198 125.996 84.5503 126.075C84.4808 126.154 84.4424 126.256 84.4424 126.362V136.903C84.4421 136.992 84.4149 137.079 84.3642 137.152C84.3136 137.225 84.242 137.281 84.1589 137.312C67.3163 143.629 60.4566 133.995 59.6717 132.777C59.6212 132.699 59.5977 132.605 59.605 132.512L62.4427 93.9979L62.5335 92.7637C62.4694 92.7316 62.4053 92.6968 62.3385 92.6566C56.8868 89.4889 49.2848 67.1268 48.2292 63.9561C48.1952 63.8538 48.2005 63.7424 48.244 63.6437C48.2876 63.5451 48.3663 63.4663 48.4648 63.4227L55.2064 60.4204C55.2804 60.3875 55.3437 60.3344 55.3892 60.2672L57.9088 56.5445C57.9465 56.4885 57.9967 56.4421 58.0555 56.409C58.1143 56.376 58.18 56.3571 58.2473 56.354C58.3147 56.3509 58.3818 56.3636 58.4434 56.3911C58.505 56.4186 58.5593 56.4601 58.602 56.5124C59.5071 57.6179 61.6609 59.5838 62.331 60.1882C62.3917 60.2429 62.4666 60.2792 62.5471 60.2929C62.6275 60.3066 62.7102 60.2971 62.7855 60.2656L69.0566 57.6684C69.1157 57.6439 69.1794 57.6328 69.2432 57.6359L77.6169 58.0405C78.7354 58.0945 79.8057 58.5133 80.6648 59.2331C81.5238 59.953 82.1246 60.9343 82.3756 62.0279L87.634 84.9363C87.6433 84.9778 87.6588 85.0177 87.6801 85.0545C87.7165 85.1176 87.7842 85.2347 87.881 85.4015C88.1348 85.8405 88.5864 86.633 89.1849 87.7012C93.6495 95.6416 106.258 118.874 105.817 127.031Z" fill="#2F2E41"/>
<path d="M50.6431 64.7878L48.5057 63.4492C48.5057 63.4492 43.6964 66.3941 43.6964 69.0713C43.6964 71.7484 37.284 82.1894 37.284 82.1894L23.3906 93.1657L30.8717 99.3232L55.7195 81.3862L50.6431 64.7878Z" fill="#2F2E41"/>
<path d="M260.001 203.465H30.0723V204H260.001V203.465Z" fill="#3F3D56"/>
<path d="M54.3095 36.0884C56.4167 36.0884 58.1248 34.3767 58.1248 32.2654C58.1248 30.154 56.4167 28.4424 54.3095 28.4424C52.2023 28.4424 50.4941 30.154 50.4941 32.2654C50.4941 34.3767 52.2023 36.0884 54.3095 36.0884Z" fill="#2F2E41"/>
<path d="M49.7677 31.7185C49.7679 30.7678 50.1216 29.8512 50.7599 29.1477C51.3982 28.4442 52.2752 28.0043 53.2197 27.9139C53.1 27.9025 52.979 27.8955 52.8564 27.8955C51.8445 27.8955 50.874 28.2983 50.1585 29.0152C49.443 29.7322 49.041 30.7046 49.041 31.7185C49.041 32.7324 49.443 33.7048 50.1585 34.4218C50.874 35.1387 51.8445 35.5415 52.8564 35.5415C52.979 35.5415 53.1 35.5345 53.2197 35.5231C52.2752 35.4327 51.3982 34.9928 50.7599 34.2893C50.1216 33.5858 49.7679 32.6692 49.7677 31.7185Z" fill="#2F2E41"/>
<path d="M71.852 41.4024L73.4359 41.9795C73.9267 41.6707 75.0213 41.0606 75.0636 41.0364C74.9639 40.2894 73.7792 36.5177 73.4441 35.9249C71.28 35.1628 69.0796 34.4702 66.8098 34.1647C64.2079 33.8109 61.4793 33.9863 59.0948 35.0932C56.7133 36.1971 54.7272 38.3233 54.1809 40.894C53.9123 42.1522 53.9605 43.5465 53.2059 44.5869C53.0545 44.7944 52.877 44.9814 52.6777 45.1433C53.4707 47.4016 54.883 49.3901 56.7525 50.8807C57.8376 51.7473 59.0585 52.428 60.3655 52.8949L60.5466 52.9584C60.5466 52.9463 60.5436 52.9312 60.5436 52.9191C60.5346 52.8314 60.5285 52.7437 60.5195 52.656C60.4742 52.1509 60.4259 51.6519 60.3806 51.1468C60.3293 50.554 60.278 49.9371 60.4953 49.3836C60.7157 48.8301 61.2922 48.3704 61.8717 48.4944C62.4542 48.6184 62.75 49.5106 62.258 49.8433C62.8798 50.3363 63.8246 50.185 64.4675 49.7253C65.1134 49.2626 65.536 48.564 65.9767 47.9046C67.7316 45.2718 70.2831 44.0683 72.9152 42.3155L71.852 41.4024Z" fill="#2F2E41"/>
<path d="M62.4421 93.9977L62.5329 92.7636C62.4688 92.7315 62.4047 92.6967 62.3379 92.6565C67.8392 91.2965 82.7345 87.5324 87.8804 85.4014C88.1342 85.8404 88.5858 86.6329 89.1843 87.7011C82.7051 89.136 67.9968 92.437 62.4421 93.9977Z" fill="#CFCCE0"/>
<path d="M64.9801 105.577L3.38477 98.6152L0.000529612 128.677L61.5959 135.639L64.9801 105.577Z" fill="#3F3D56"/>
<path d="M29.8682 121.792C30.8082 127.946 35.9147 132.269 35.9147 132.269C35.9147 132.269 39.497 126.614 38.557 120.459C37.6169 114.305 32.5104 109.981 32.5104 109.981C32.5104 109.981 28.9281 115.637 29.8682 121.792Z" fill="white"/>
<path d="M32.3823 120.776C36.3209 125.592 36.1145 132.287 36.1145 132.287C36.1145 132.287 29.5223 131.174 25.5836 126.359C21.645 121.543 21.8515 114.848 21.8515 114.848C21.8515 114.848 28.4437 115.96 32.3823 120.776Z" fill="#19686B"/>
<path opacity="0.1" d="M75.7578 72.0156L78.9639 84.0629L73.0859 93.1652L75.7578 84.0629V72.0156Z" fill="black"/>
<path d="M58.1239 55.417C58.1239 55.417 55.1849 59.7004 55.7192 60.2359C56.2536 60.7713 62.3988 61.8422 62.3988 61.8422V60.2359L58.1239 55.417Z" fill="#CFCCE0"/>
<path d="M69.0799 55.417C69.0799 55.417 72.0189 59.7004 71.4845 60.2359C70.9502 60.7713 62.4004 61.8422 62.4004 61.8422V60.2359L69.0799 55.417Z" fill="#CFCCE0"/>
<path d="M84.3082 125.292C85.1935 125.292 85.9112 124.573 85.9112 123.685C85.9112 122.798 85.1935 122.079 84.3082 122.079C83.4228 122.079 82.7051 122.798 82.7051 123.685C82.7051 124.573 83.4228 125.292 84.3082 125.292Z" fill="#CFCCE0"/>
<path d="M82.439 119.133C83.3244 119.133 84.0421 118.414 84.0421 117.527C84.0421 116.64 83.3244 115.921 82.439 115.921C81.5537 115.921 80.8359 116.64 80.8359 117.527C80.8359 118.414 81.5537 119.133 82.439 119.133Z" fill="#CFCCE0"/>
<path d="M80.8355 112.976C81.7209 112.976 82.4386 112.257 82.4386 111.37C82.4386 110.483 81.7209 109.764 80.8355 109.764C79.9501 109.764 79.2324 110.483 79.2324 111.37C79.2324 112.257 79.9501 112.976 80.8355 112.976Z" fill="#CFCCE0"/>
<path d="M79.232 106.551C80.1173 106.551 80.8351 105.832 80.8351 104.945C80.8351 104.058 80.1173 103.339 79.232 103.339C78.3466 103.339 77.6289 104.058 77.6289 104.945C77.6289 105.832 78.3466 106.551 79.232 106.551Z" fill="#CFCCE0"/>
<path d="M77.0953 100.393C77.9806 100.393 78.6984 99.6741 78.6984 98.787C78.6984 97.8998 77.9806 97.1807 77.0953 97.1807C76.2099 97.1807 75.4922 97.8998 75.4922 98.787C75.4922 99.6741 76.2099 100.393 77.0953 100.393Z" fill="#CFCCE0"/>
<path d="M75.6269 93.835L66.8099 101.331C66.8099 101.331 57.1914 109.63 61.4663 111.772C65.7412 113.914 70.8177 103.205 70.8177 103.205L82.5736 94.6381L75.6269 93.835Z" fill="#A0616A"/>
<path d="M78.5639 59.0313C79.4741 58.7797 80.4388 58.8096 81.3317 59.1171C82.2246 59.4247 83.0038 59.9954 83.5673 60.7545C84.243 61.6224 84.8062 62.5726 85.2435 63.5824C86.045 65.7242 87.6481 97.047 87.6481 97.047L72.9531 94.9053L78.5639 83.9289V59.0313Z" fill="#2F2E41"/>
<path d="M126.075 108.017H125.541V121.828H126.075V108.017Z" fill="#3F3D56"/>
<path d="M213.167 203.89H138.305C134.921 203.886 131.676 202.537 129.283 200.138C126.89 197.74 125.544 194.488 125.541 191.097V146.257H126.075V191.097C126.079 194.346 127.368 197.462 129.661 199.76C131.954 202.058 135.062 203.351 138.305 203.355H213.167C216.411 203.351 219.52 202.059 221.814 199.761C224.107 197.462 225.397 194.347 225.401 191.097V145.615H225.935V191.097C225.932 194.489 224.585 197.741 222.192 200.139C219.798 202.537 216.552 203.887 213.167 203.89Z" fill="#3F3D56"/>
<path d="M225.937 108.054H225.402V121.543H225.937V108.054Z" fill="#3F3D56"/>
<path d="M225.935 83.9218H225.401V70.7803H226.239C226.381 70.7801 226.517 70.7236 226.617 70.6232C226.717 70.5227 226.773 70.3865 226.773 70.2445V47.1995C226.773 47.0575 226.717 46.9213 226.617 46.8209C226.517 46.7205 226.381 46.664 226.239 46.6638H225.401V12.7901C225.397 9.54064 224.107 6.42547 221.813 4.12807C219.52 1.83066 216.41 0.538627 213.167 0.535433H138.305C135.063 0.539123 131.954 1.83143 129.662 4.12883C127.369 6.42624 126.079 9.54113 126.075 12.7901V83.8838H125.541V12.7901C125.545 9.39917 126.891 6.14819 129.284 3.75041C131.677 1.35262 134.921 0.00385328 138.305 0H213.167C216.552 0.00335644 219.797 1.35185 222.191 3.74964C224.584 6.14742 225.931 9.39868 225.935 12.7901V46.1284H226.239C226.522 46.1287 226.794 46.2417 226.994 46.4425C227.195 46.6433 227.308 46.9156 227.308 47.1996V70.2445C227.308 70.5285 227.195 70.8008 226.994 71.0016C226.794 71.2024 226.522 71.3154 226.239 71.3157H225.935V83.9218Z" fill="#3F3D56"/>
<path d="M179.555 6.69043H166.968C166.593 6.69043 166.289 6.9951 166.289 7.37094V8.84718C166.289 9.22301 166.593 9.52768 166.968 9.52768H179.555C179.93 9.52768 180.234 9.22301 180.234 8.84718V7.37094C180.234 6.9951 179.93 6.69043 179.555 6.69043Z" fill="#E6E8EC"/>
<path d="M183.948 9.71861C184.835 9.71861 185.554 8.9981 185.554 8.1093C185.554 7.22051 184.835 6.5 183.948 6.5C183.061 6.5 182.342 7.22051 182.342 8.1093C182.342 8.9981 183.061 9.71861 183.948 9.71861Z" fill="#E6E8EC"/>
<path d="M219.684 15.2674V192.136C219.683 194.243 218.847 196.263 217.36 197.753C215.872 199.242 213.856 200.079 211.753 200.079H140.091C139.05 200.081 138.018 199.877 137.055 199.478C136.092 199.08 135.217 198.495 134.48 197.757C133.744 197.019 133.159 196.143 132.761 195.178C132.363 194.213 132.159 193.18 132.16 192.136V15.2674C132.16 14.2238 132.365 13.1904 132.764 12.2262C133.162 11.262 133.747 10.3858 134.483 9.64788C135.22 8.90991 136.094 8.32453 137.056 7.92517C138.018 7.5258 139.05 7.32027 140.091 7.32031H150.817V8.69921C150.817 10.4347 151.505 12.0991 152.73 13.3263C153.954 14.5534 155.616 15.2429 157.348 15.2429H193.793C195.525 15.2429 197.186 14.5534 198.41 13.3263C199.635 12.0991 200.323 10.4347 200.323 8.69921V7.32031H211.753C212.794 7.31997 213.826 7.5253 214.788 7.92456C215.751 8.32382 216.625 8.90919 217.362 9.64722C218.098 10.3852 218.682 11.2615 219.081 12.2258C219.479 13.1902 219.684 14.2237 219.684 15.2674Z" fill="#E6E8EC"/>
<path opacity="0.2" d="M206.677 156.347H144.691V186.599H206.677V156.347Z" fill="black"/>
<path d="M230.374 108.328H121.465V83.6133H230.374V108.328ZM122.105 107.686H229.734V84.2552H122.105V107.686Z" fill="#3F3D56"/>
<path d="M142.287 91.958H130.115V104.155H142.287V91.958Z" fill="#19686B"/>
<path d="M140.686 102.55H127.873V89.7119H140.686V102.55ZM128.514 101.909H140.045V90.3539H128.514V101.909Z" fill="#3F3D56"/>
<path d="M217.883 92.2793H160.865V92.9212H217.883V92.2793Z" fill="#3F3D56"/>
<path d="M217.883 96.7725H160.865V97.4144H217.883V96.7725Z" fill="#3F3D56"/>
<path d="M217.883 101.267H160.865V101.909H217.883V101.267Z" fill="#3F3D56"/>
<path d="M230.374 146.257H121.465V121.543H230.374V146.257ZM122.105 145.615H229.734V122.185H122.105V145.615Z" fill="#3F3D56"/>
<path d="M209.554 142.085H221.727V129.888H209.554V142.085Z" fill="#19686B"/>
<path d="M223.969 140.48H211.156V127.642H223.969V140.48ZM211.797 139.838H223.328V128.284H211.797L211.797 139.838Z" fill="#3F3D56"/>
<path d="M190.976 130.209H133.959V130.851H190.976V130.209Z" fill="#3F3D56"/>
<path d="M190.976 134.702H133.959V135.344H190.976V134.702Z" fill="#3F3D56"/>
<path d="M190.976 139.196H133.959V139.838H190.976V139.196Z" fill="#3F3D56"/>
<path d="M204.308 44.1943H147.291V44.8363H204.308V44.1943Z" fill="#3F3D56"/>
<path d="M204.308 48.6885H147.291V49.3304H204.308V48.6885Z" fill="#3F3D56"/>
<path d="M204.308 53.1816H147.291V53.8236H204.308V53.1816Z" fill="#3F3D56"/>
</g>
<defs>
<clipPath id="clip0">
<rect width="260" height="204" fill="white"/>
</clipPath>
</defs>
</svg>
