<svg width="60" height="60" viewBox="0 0 60 60" fill="none" xmlns="http://www.w3.org/2000/svg">
<circle cx="30" cy="30" r="30" fill="#19686B" fill-opacity="0.08"/>
<path d="M40.8794 23.3517C40.8794 23.0954 40.6543 22.8711 40.3972 22.8711H38.115C37.8578 22.8711 37.6328 23.0954 37.6328 23.3517C37.6328 23.608 37.8578 23.8323 38.115 23.8323H40.3972C40.6865 23.8323 40.8794 23.608 40.8794 23.3517Z" fill="#19686B"/>
<path d="M37.472 21.3008L39.0792 19.6988C39.2721 19.5066 39.2721 19.2183 39.0792 19.026C38.8863 18.8338 38.5971 18.8338 38.4042 19.026L36.797 20.628C36.6041 20.8202 36.6041 21.1086 36.797 21.3008C36.8934 21.3969 37.022 21.429 37.1506 21.429C37.2791 21.429 37.3756 21.3649 37.472 21.3008Z" fill="#19686B"/>
<path d="M35.1889 19.9556V17.6808C35.1889 17.4245 34.9639 17.2002 34.7068 17.2002C34.4496 17.2002 34.2246 17.4245 34.2246 17.6808V19.9556C34.2246 20.2119 34.4496 20.4362 34.7068 20.4362C34.9639 20.4362 35.1889 20.2119 35.1889 19.9556Z" fill="#19686B"/>
<path d="M38.6294 25.6262C38.6294 25.3699 38.4044 25.1456 38.1472 25.1456C37.8901 25.1456 37.6651 25.3699 37.6651 25.6262V39.8197C37.6651 41.1013 36.5722 42.1586 35.2543 42.1586H22.8146C21.4967 42.1586 20.4038 41.1013 20.4038 39.8197V22.7747C20.4038 21.4931 21.4967 20.4358 22.8146 20.4358H32.4577C32.7149 20.4358 32.9399 20.2115 32.9399 19.9552C32.9399 19.6989 32.7149 19.4746 32.4577 19.4746H22.8146C20.9502 19.4746 19.4395 20.9484 19.4395 22.7747V39.8197C19.4395 41.646 20.9502 43.1198 22.8146 43.1198H35.2543C37.1186 43.1198 38.6294 41.646 38.6294 39.8197V25.6262Z" fill="#19686B"/>
<path d="M25.0315 29.6963C23.81 29.6963 22.8457 30.6895 22.8457 31.875C22.8457 33.0604 23.8422 34.0537 25.0315 34.0537C26.2208 34.0537 27.2173 33.0604 27.2173 31.875C27.2173 30.6895 26.253 29.6963 25.0315 29.6963ZM25.0315 33.0925C24.3565 33.0925 23.81 32.5478 23.81 31.875C23.81 31.2021 24.3565 30.6575 25.0315 30.6575C25.7065 30.6575 26.253 31.2021 26.253 31.875C26.253 32.5478 25.7065 33.0925 25.0315 33.0925Z" fill="#19686B"/>
<path d="M25.0315 35.3662C23.81 35.3662 22.8457 36.3594 22.8457 37.5449C22.8457 38.7304 23.8422 39.7236 25.0315 39.7236C26.2208 39.7236 27.2173 38.7304 27.2173 37.5449C27.2173 36.3594 26.253 35.3662 25.0315 35.3662ZM25.0315 38.7624C24.3565 38.7624 23.81 38.2177 23.81 37.5449C23.81 36.8721 24.3565 36.3274 25.0315 36.3274C25.7065 36.3274 26.253 36.8721 26.253 37.5449C26.253 38.2177 25.7065 38.7624 25.0315 38.7624Z" fill="#19686B"/>
<path d="M24.3894 28.3502C24.6466 28.3502 24.8716 28.222 25.0001 28.0298L27.1216 23.5442C27.2502 23.32 27.1216 23.0316 26.8966 22.9035C26.6716 22.7753 26.3823 22.9035 26.2537 23.1277L24.3573 27.1327L23.7144 26.0433C23.5858 25.8191 23.2965 25.7229 23.0394 25.8831C22.8143 26.0113 22.7179 26.2996 22.8786 26.556L23.7465 28.0298C23.9072 28.2541 24.1323 28.3502 24.3894 28.3502Z" fill="#19686B"/>
<path d="M28.5371 25.6271C28.5371 25.8834 28.7621 26.1077 29.0193 26.1077H34.7087C34.9659 26.1077 35.1909 25.8834 35.1909 25.6271C35.1909 25.3708 34.9659 25.1465 34.7087 25.1465H29.0193C28.7621 25.1465 28.5371 25.3708 28.5371 25.6271Z" fill="#19686B"/>
<path d="M34.7409 28.542H29.0193C28.7621 28.542 28.5371 28.7663 28.5371 29.0226C28.5371 29.2789 28.7621 29.5032 29.0193 29.5032H34.7087C34.9659 29.5032 35.1909 29.2789 35.1909 29.0226C35.1909 28.7663 34.998 28.542 34.7409 28.542Z" fill="#19686B"/>
<path d="M34.7409 31.9707H29.0193C28.7621 31.9707 28.5371 32.195 28.5371 32.4513C28.5371 32.7076 28.7621 32.9319 29.0193 32.9319H34.7087C34.9659 32.9319 35.1909 32.7076 35.1909 32.4513C35.1909 32.195 34.998 31.9707 34.7409 31.9707Z" fill="#19686B"/>
<path d="M34.7409 35.3662H29.0193C28.7621 35.3662 28.5371 35.5905 28.5371 35.8468C28.5371 36.1031 28.7621 36.3274 29.0193 36.3274H34.7087C34.9659 36.3274 35.1909 36.1031 35.1909 35.8468C35.1909 35.5905 34.998 35.3662 34.7409 35.3662Z" fill="#19686B"/>
<path d="M34.7405 38.7627H30.0154C29.7582 38.7627 29.5332 38.987 29.5332 39.2433C29.5332 39.4996 29.7582 39.7239 30.0154 39.7239H34.7084C34.9655 39.7239 35.1905 39.4996 35.1905 39.2433C35.1905 38.987 34.9977 38.7627 34.7405 38.7627Z" fill="#19686B"/>
</svg>
